<?xml version="1.0" standalone="no"?>
<!DOCTYPE svg PUBLIC "-//W3C//DTD SVG 20010904//EN"
 "http://www.w3.org/TR/2001/REC-SVG-20010904/DTD/svg10.dtd">
<svg version="1.0" xmlns="http://www.w3.org/2000/svg"
 width="1000.000000pt" height="1000.000000pt" viewBox="0 0 1000.000000 1000.000000"
 preserveAspectRatio="xMidYMid meet">
<metadata>
Created by potrace 1.11, written by Peter Selinger 2001-2013
</metadata>
<g transform="translate(0.000000,1000.000000) scale(0.100000,-0.100000)"
fill="#000000" stroke="none">
<path d="M3326 8882 c-4 -4 -11 -7 -14 -8 -4 -1 -23 -7 -42 -15 -19 -7 -39
-12 -43 -11 -5 1 -6 -2 -3 -7 4 -5 -3 -12 -14 -16 -11 -4 -18 -11 -15 -16 4
-5 2 -9 -3 -9 -5 0 -15 -12 -23 -27 -8 -16 -20 -35 -28 -43 -10 -10 -10 -15
-2 -18 9 -3 9 -7 0 -18 -6 -7 -9 -21 -5 -29 3 -8 1 -15 -5 -15 -6 0 -8 -4 -5
-8 3 -5 6 -28 7 -51 2 -23 7 -45 11 -47 5 -3 6 -9 4 -13 -3 -4 0 -25 6 -47 6
-21 11 -42 10 -46 -1 -5 4 -8 10 -8 9 0 8 -4 -2 -10 -11 -7 -11 -10 -2 -10 7
0 10 -4 7 -10 -3 -5 -1 -10 5 -10 6 0 8 -4 5 -10 -3 -5 -3 -16 2 -22 4 -7 8
-17 8 -23 1 -5 4 -17 7 -25 19 -51 29 -100 23 -110 -5 -8 -4 -11 2 -7 6 4 14
0 17 -9 4 -10 2 -13 -6 -8 -7 5 -8 3 -2 -7 5 -8 9 -17 10 -21 1 -5 3 -10 4
-13 1 -3 4 -9 5 -15 1 -5 3 -11 4 -12 3 -3 8 -37 14 -83 2 -17 6 -35 8 -40 6
-10 11 -60 12 -107 1 -16 4 -28 7 -28 4 0 7 -15 7 -32 0 -18 3 -55 7 -83 11
-83 19 -158 19 -192 0 -18 3 -33 7 -33 3 0 5 -19 5 -42 -1 -24 3 -46 9 -50 7
-5 7 -8 -2 -8 -7 0 -10 -4 -7 -10 3 -5 8 -31 10 -57 2 -27 4 -48 5 -48 1 0 3
-10 4 -22 2 -13 -2 -23 -8 -23 -7 0 -8 -3 -1 -8 10 -7 16 -74 19 -209 0 -40 5
-73 11 -73 5 0 4 -5 -2 -11 -7 -7 -8 -21 -2 -42 6 -20 5 -35 -2 -44 -6 -7 -8
-13 -3 -13 5 0 10 -27 11 -60 2 -46 0 -59 -10 -54 -9 6 -9 4 -1 -7 6 -8 11
-42 10 -77 0 -34 3 -62 7 -62 5 0 6 -4 2 -9 -3 -5 -6 -119 -6 -253 -1 -134 -6
-248 -11 -255 -5 -7 -5 -13 0 -17 10 -6 8 -93 -2 -103 -3 -4 -1 -12 5 -20 6
-7 8 -13 3 -13 -5 0 -9 -39 -9 -86 0 -47 -4 -88 -9 -91 -4 -3 -2 -9 5 -14 12
-7 12 -9 0 -9 -11 0 -11 -3 -1 -15 7 -8 9 -15 4 -15 -5 0 -10 -19 -11 -43 -1
-23 -3 -56 -5 -74 -3 -18 0 -29 6 -26 5 3 6 1 2 -6 -4 -6 -9 -33 -12 -59 -13
-143 -16 -189 -15 -210 0 -13 -2 -21 -7 -19 -4 3 -7 -21 -6 -54 0 -32 -2 -59
-5 -59 -3 0 -7 -19 -8 -43 -1 -23 -4 -58 -6 -77 -3 -19 -8 -64 -11 -100 -7
-77 -10 -92 -18 -105 -3 -5 -5 -27 -4 -47 2 -21 -1 -38 -4 -38 -4 0 -6 -11 -5
-25 2 -14 0 -27 -5 -30 -4 -3 -6 -15 -2 -27 4 -16 2 -19 -9 -13 -12 8 -12 6 0
-8 7 -9 9 -17 4 -17 -5 0 -8 -16 -8 -35 1 -19 -2 -35 -6 -35 -4 0 -6 -11 -4
-25 1 -14 -1 -25 -4 -25 -3 0 -7 -10 -7 -22 -2 -27 -12 -92 -20 -128 -3 -14
-6 -33 -6 -42 1 -10 -3 -18 -7 -18 -4 0 -6 -14 -5 -30 1 -17 -3 -30 -9 -30 -8
0 -7 -4 2 -9 9 -6 10 -11 2 -15 -6 -4 -11 -16 -11 -27 0 -26 -20 -47 -43 -43
-9 1 -17 -1 -17 -5 0 -4 -6 -8 -12 -8 -15 -1 -61 -9 -100 -17 -67 -14 -107
-21 -173 -31 -11 -2 -20 -4 -20 -5 0 -2 -28 -6 -95 -14 -25 -2 -45 -5 -45 -6
0 -3 -61 -13 -90 -14 -16 0 -33 -5 -37 -11 -5 -6 -8 -5 -8 4 0 9 -4 10 -12 4
-12 -9 -43 -13 -123 -17 -16 0 -33 -5 -37 -11 -5 -6 -8 -5 -8 3 0 9 -5 10 -19
2 -13 -7 -22 -7 -26 0 -4 6 -13 7 -23 1 -10 -5 -34 -8 -55 -7 -20 1 -37 -1
-37 -4 0 -3 -19 -7 -42 -8 -24 0 -63 -4 -88 -6 -57 -7 -268 -18 -295 -16 -58
4 -192 4 -205 0 -33 -11 -46 -65 -27 -115 27 -74 154 -182 259 -221 24 -8 50
-19 58 -23 14 -8 74 -24 92 -25 3 -1 9 -4 13 -8 4 -4 13 -4 21 -1 8 3 14 1 14
-4 0 -6 21 -11 47 -12 26 -1 50 -6 54 -12 5 -8 8 -8 13 0 4 6 15 7 29 2 24 -9
258 -6 347 4 30 4 72 7 93 8 20 0 37 3 37 7 0 3 12 7 28 7 38 2 136 11 142 14
3 1 10 3 15 4 6 2 13 4 18 5 4 1 21 4 37 5 17 1 31 3 33 5 3 3 38 9 79 14 20
2 42 7 48 11 17 10 43 -3 33 -17 -8 -14 -8 -15 -18 -62 -3 -16 -8 -33 -10 -36
-2 -4 -7 -22 -10 -41 -3 -18 -9 -36 -13 -39 -6 -5 -11 -24 -14 -57 -1 -7 -4
-13 -8 -13 -3 0 -7 -9 -8 -20 -4 -43 -6 -50 -13 -50 -5 0 -6 -7 -3 -15 4 -8 1
-15 -4 -15 -6 0 -9 -9 -7 -20 2 -11 0 -20 -4 -20 -4 0 -8 -6 -9 -12 -6 -46
-16 -78 -25 -78 -6 0 -8 -3 -4 -6 3 -3 -4 -31 -15 -62 -10 -32 -21 -64 -23
-72 -2 -8 -9 -28 -16 -45 -7 -16 -13 -37 -14 -45 -1 -8 -8 -28 -15 -45 -7 -16
-14 -37 -14 -45 0 -8 -4 -18 -8 -21 -5 -3 -11 -16 -13 -29 -2 -13 -9 -28 -14
-33 -5 -5 -7 -16 -4 -23 3 -8 0 -14 -6 -14 -6 0 -8 -7 -5 -15 4 -8 1 -15 -7
-15 -7 0 -10 -3 -6 -6 3 -4 0 -19 -9 -35 -8 -16 -12 -29 -8 -29 4 0 1 -7 -6
-15 -7 -8 -10 -15 -6 -15 4 0 -1 -11 -10 -25 -9 -14 -14 -25 -11 -25 3 0 0
-12 -8 -26 -7 -15 -11 -33 -8 -42 4 -9 2 -13 -4 -9 -11 7 -26 -27 -24 -50 1
-7 -3 -13 -8 -13 -6 0 -8 -7 -5 -15 4 -8 1 -15 -6 -15 -6 0 -9 -4 -5 -9 3 -5
1 -12 -5 -16 -6 -4 -8 -11 -5 -16 4 -5 1 -9 -4 -9 -6 0 -10 -3 -10 -7 4 -23
-2 -43 -11 -38 -7 4 -9 -3 -6 -19 3 -14 1 -26 -4 -26 -8 0 -25 -48 -22 -63 1
-4 -2 -7 -7 -7 -8 0 -25 -56 -22 -72 0 -5 -3 -8 -7 -8 -4 0 -16 -24 -26 -53
-10 -28 -25 -67 -33 -85 -8 -18 -16 -42 -18 -54 -3 -12 -10 -25 -17 -30 -7 -4
-10 -8 -6 -8 4 0 -2 -24 -13 -52 -11 -29 -21 -57 -22 -63 -1 -5 -5 -12 -9 -15
-4 -3 -9 -15 -11 -25 -2 -11 -9 -31 -14 -45 -6 -14 -21 -54 -34 -90 -13 -36
-27 -67 -31 -68 -5 -2 -6 -8 -3 -13 3 -4 -1 -22 -10 -39 -8 -16 -13 -30 -9
-30 4 0 2 -6 -4 -12 -6 -7 -11 -16 -11 -20 -1 -4 -3 -13 -6 -20 -2 -7 -14 -42
-25 -78 -12 -36 -26 -71 -32 -78 -6 -6 -8 -12 -4 -12 3 0 0 -16 -8 -35 -8 -19
-12 -35 -9 -35 3 0 1 -6 -4 -12 -6 -7 -13 -25 -17 -40 -3 -15 -11 -40 -18 -55
-12 -29 -16 -43 -21 -68 -2 -8 -6 -17 -9 -21 -8 -8 -1 -53 14 -81 13 -26 63
-49 98 -45 26 4 130 61 130 73 0 3 10 17 23 31 48 52 97 117 97 127 0 7 7 14
15 17 8 4 12 10 9 15 -3 5 -1 9 4 9 5 0 12 8 16 18 7 22 28 55 41 64 6 4 6 8
2 8 -5 0 1 12 12 26 12 15 21 33 21 40 0 7 6 17 14 21 8 4 15 13 16 18 5 24
35 85 43 85 4 0 5 5 2 10 -3 6 -1 10 5 10 6 0 8 5 4 12 -4 6 -1 16 7 22 12 10
41 62 41 76 0 3 9 17 19 31 10 14 16 29 12 33 -3 3 -1 6 5 6 7 0 11 3 10 8 -1
4 12 36 29 72 40 85 96 207 114 248 8 17 18 32 22 32 5 0 6 4 2 9 -7 12 25 81
37 81 5 0 6 4 3 10 -3 5 -3 16 2 23 4 6 8 14 9 17 11 38 18 50 27 50 6 0 7 3
4 7 -4 3 3 22 15 41 12 20 17 33 11 29 -6 -4 2 18 17 47 16 30 26 57 23 60 -4
3 0 6 7 6 7 0 10 3 7 7 -4 3 -2 12 4 20 6 7 9 13 5 13 -4 0 4 19 17 43 13 23
22 48 20 55 -3 6 0 12 7 12 6 0 9 4 5 9 -3 5 -1 12 5 16 6 4 8 11 5 16 -4 5
-1 9 5 9 6 0 9 4 5 9 -3 5 1 16 9 24 8 8 12 17 9 21 -3 3 -1 12 5 19 7 8 9 17
5 20 -3 4 -1 7 5 7 7 0 11 3 11 8 -1 4 0 9 1 12 1 3 3 12 5 20 9 37 53 149 56
145 3 -2 6 8 7 22 1 14 7 32 13 39 6 7 8 18 4 24 -3 5 -1 10 4 10 6 0 10 3 9
7 -3 16 15 63 24 63 5 0 7 4 4 9 -7 11 25 103 39 113 6 5 4 8 -4 8 -12 0 -12
3 -3 12 7 7 12 20 12 30 0 10 5 18 12 18 6 0 9 3 6 6 -4 3 -2 20 4 37 5 18 11
37 12 42 2 6 7 25 11 43 4 17 12 32 17 32 5 0 6 5 3 10 -4 6 -2 16 3 23 5 7 8
20 7 29 -2 10 0 18 4 18 4 0 8 9 9 20 4 42 6 50 12 50 7 0 9 9 12 55 1 14 5
25 8 25 4 0 7 6 8 13 2 31 15 84 23 100 5 9 7 17 5 17 -3 0 0 12 6 27 6 16 10
38 9 51 0 12 4 22 9 22 5 0 7 7 4 15 -6 14 17 21 49 16 4 0 7 3 7 7 0 4 8 9
18 10 31 3 47 7 60 16 7 4 16 5 19 2 3 -3 12 -1 20 5 7 6 13 8 13 5 0 -4 10
-1 23 6 12 6 29 13 37 14 8 1 29 7 47 12 17 6 34 8 37 4 3 -3 6 -1 6 5 0 5 6
10 13 11 23 1 56 11 76 22 12 6 21 8 21 4 0 -3 6 -2 13 4 6 6 14 10 17 10 3 0
29 7 59 16 29 8 58 13 64 9 6 -3 7 -1 3 5 -5 8 2 12 18 12 14 0 26 4 26 8 0 5
6 9 13 10 12 1 47 9 57 12 3 1 8 2 13 1 4 0 7 3 7 7 0 5 7 9 15 10 8 1 22 3
30 4 8 1 15 5 15 10 0 5 6 8 13 7 6 -1 26 3 42 10 17 7 35 14 40 15 6 1 20 8
33 14 12 7 22 10 22 6 0 -3 12 1 26 11 15 9 23 12 19 5 -4 -7 4 -4 19 5 14 10
26 14 26 9 0 -4 5 -3 12 4 7 7 20 12 30 12 10 0 18 5 18 12 0 6 3 9 6 5 3 -3
28 3 54 13 26 10 51 16 54 13 3 -4 6 -1 6 5 0 7 7 12 15 12 14 0 20 -12 16
-33 -1 -5 3 -6 8 -2 6 3 13 -6 17 -20 3 -14 10 -25 16 -25 5 0 7 -4 4 -9 -3
-5 1 -12 10 -15 8 -3 13 -10 10 -15 -4 -5 0 -16 8 -23 7 -8 17 -24 20 -36 4
-12 12 -22 17 -22 6 0 7 -4 4 -10 -3 -6 -1 -10 4 -10 6 0 11 -7 11 -15 0 -8 5
-15 10 -15 6 0 10 -7 10 -15 0 -8 5 -15 11 -15 5 0 7 -4 4 -10 -3 -6 -1 -10 5
-10 7 0 10 -7 6 -15 -3 -9 0 -15 10 -15 8 0 12 -5 9 -10 -3 -6 1 -13 10 -16 9
-4 14 -12 11 -20 -3 -7 -1 -14 3 -16 12 -5 74 -101 74 -115 0 -7 7 -13 15 -13
9 0 13 -3 9 -6 -3 -4 -1 -12 6 -20 25 -28 33 -39 33 -46 -1 -3 9 -18 21 -31
12 -14 19 -28 16 -31 -4 -3 -1 -6 5 -6 7 0 12 -7 12 -15 0 -8 5 -15 10 -15 6
0 10 -7 10 -15 0 -8 5 -15 10 -15 6 0 14 -8 17 -17 8 -21 55 -87 66 -91 4 -2
7 -10 7 -18 0 -8 5 -14 10 -14 6 0 10 -7 10 -16 0 -8 5 -12 10 -9 6 3 10 0 10
-8 0 -7 9 -23 20 -35 11 -12 20 -24 20 -26 0 -6 24 -37 48 -61 6 -8 12 -18 12
-24 0 -6 5 -11 10 -11 6 0 10 -7 10 -16 0 -8 4 -12 10 -9 6 3 10 0 10 -7 0 -8
9 -20 19 -28 11 -7 18 -17 15 -22 -3 -4 0 -8 7 -8 7 0 10 -3 7 -6 -3 -3 11
-23 33 -45 21 -21 36 -39 34 -39 -3 0 3 -9 13 -19 48 -52 71 -81 65 -81 -3 0
6 -11 21 -25 14 -13 26 -27 26 -31 0 -4 12 -17 28 -30 15 -13 24 -24 20 -24
-3 0 10 -17 30 -39 20 -21 62 -67 92 -102 30 -34 65 -72 77 -82 12 -11 20 -24
17 -29 -3 -5 -2 -7 3 -6 8 2 103 -88 98 -94 -2 -2 3 -9 11 -16 8 -7 14 -11 14
-8 0 2 16 -12 35 -31 19 -19 35 -39 35 -44 0 -5 7 -9 16 -9 8 0 12 -4 9 -10
-3 -5 -2 -10 4 -10 14 0 97 -82 93 -93 -1 -5 2 -6 8 -2 5 3 10 1 10 -5 0 -6 5
-8 10 -5 6 3 10 -2 10 -11 0 -10 3 -14 6 -11 4 3 18 -6 33 -21 14 -15 46 -43
71 -62 25 -19 52 -42 61 -52 9 -10 20 -18 25 -18 5 0 23 -14 41 -30 18 -17 37
-30 42 -30 6 0 11 -4 11 -10 0 -5 6 -10 14 -10 8 0 16 -3 18 -7 4 -10 57 -42
81 -50 9 -3 17 -11 17 -19 0 -8 6 -11 15 -8 8 4 15 1 15 -6 0 -6 4 -9 9 -5 5
3 17 -2 25 -11 9 -8 16 -12 16 -8 0 4 12 -3 27 -17 14 -13 23 -18 19 -12 -4 7
-2 13 3 13 6 0 11 -4 11 -10 0 -5 12 -13 28 -16 15 -4 32 -11 39 -16 7 -5 17
-7 23 -3 5 3 10 2 10 -4 0 -8 75 -27 93 -23 4 1 7 -3 7 -9 0 -6 7 -8 16 -5 9
4 23 1 30 -5 11 -9 14 -9 14 0 0 7 5 9 12 5 6 -4 32 -9 57 -11 25 -2 51 -4 56
-5 16 -1 119 14 128 19 4 2 19 7 34 9 14 3 44 14 66 24 22 11 43 17 47 15 4
-3 11 2 14 11 3 8 10 12 16 9 5 -3 10 -1 10 4 0 6 4 11 10 11 29 0 184 158
245 250 28 41 53 77 56 80 3 3 17 25 31 50 20 34 24 51 17 68 -13 35 -43 27
-153 -42 -89 -56 -158 -93 -191 -102 -5 -1 -30 -9 -55 -17 -64 -20 -240 -11
-248 13 -2 5 -7 8 -11 5 -15 -9 -188 66 -202 87 -3 5 -8 8 -10 7 -8 -6 -107
56 -103 63 3 5 2 8 -3 7 -20 -3 -34 2 -28 11 4 6 2 9 -3 8 -11 -3 -45 18 -74
44 -10 10 -20 18 -23 18 -5 0 -31 20 -70 55 -61 54 -76 65 -86 65 -5 0 -7 5
-4 10 3 5 -1 10 -9 10 -8 0 -17 9 -21 20 -3 11 -10 19 -14 17 -5 -1 -36 25
-69 58 -34 33 -75 72 -91 87 -17 15 -31 33 -31 38 0 6 -4 9 -9 5 -6 -3 -15 3
-20 14 -6 10 -35 43 -65 72 -30 29 -52 58 -49 64 4 5 3 7 -2 3 -4 -4 -17 2
-27 15 -11 12 -36 40 -56 63 -20 22 -57 65 -82 94 -25 29 -61 68 -80 88 -19
20 -26 30 -15 22 11 -7 8 -1 -7 14 -16 15 -28 31 -28 37 0 6 -4 8 -8 5 -5 -3
-15 7 -23 22 -8 15 -26 38 -41 52 -16 13 -28 30 -28 37 0 7 -3 13 -7 13 -5 0
-24 23 -43 50 -19 27 -38 50 -42 50 -5 0 -8 10 -8 22 0 12 -3 19 -6 15 -9 -9
-36 21 -30 32 3 5 -4 11 -16 14 -12 4 -19 9 -16 12 4 4 -1 16 -10 27 -9 11
-25 29 -34 40 -10 11 -15 25 -12 29 3 5 -3 9 -12 9 -10 0 -15 3 -11 6 3 4 -1
13 -9 21 -8 8 -12 19 -8 24 3 5 2 8 -3 7 -4 -2 -9 2 -11 7 -2 6 -10 14 -17 18
-8 4 -22 23 -31 42 -9 19 -20 35 -25 35 -5 0 -9 6 -9 14 0 7 -7 19 -15 26 -8
7 -12 17 -8 23 3 5 2 7 -4 4 -5 -4 -16 6 -24 21 -8 15 -17 29 -20 32 -3 3 -16
24 -29 48 -13 23 -27 42 -32 42 -4 0 -8 7 -8 15 0 8 -5 15 -11 15 -5 0 -7 4
-4 10 3 6 1 10 -4 10 -6 0 -11 6 -11 14 0 8 -8 22 -17 32 -10 10 -18 20 -18
23 -1 13 -40 71 -48 71 -4 0 -6 4 -2 9 3 5 0 16 -7 23 -18 19 -48 69 -55 91
-3 9 -10 17 -15 17 -5 0 -7 4 -4 9 3 5 -1 14 -9 21 -19 16 -19 30 0 30 8 0 15
5 15 10 0 6 9 10 20 10 11 0 20 4 20 10 0 5 3 9 8 8 13 -4 102 34 102 44 0 5
5 6 10 3 6 -4 17 -1 25 5 8 7 15 9 15 6 0 -4 7 0 16 9 9 9 22 14 29 11 7 -2
22 4 34 15 11 11 23 19 26 19 13 -2 75 25 75 32 0 4 4 7 8 5 10 -3 115 45 123
56 3 5 9 8 13 6 10 -3 129 54 138 66 4 6 8 6 8 1 0 -5 10 -1 22 10 12 10 18
13 13 5 -5 -8 6 -5 23 8 18 12 32 19 32 14 0 -4 4 -3 8 3 8 12 115 64 131 64
6 0 11 4 11 9 0 7 36 22 49 20 2 0 7 3 10 8 3 5 39 25 78 44 40 18 73 38 73
42 0 5 5 5 10 2 6 -3 10 -1 10 5 0 6 4 9 9 5 5 -3 12 -1 16 5 4 6 11 8 16 5 5
-4 9 -2 9 3 0 9 50 37 63 34 4 -1 7 2 7 6 0 4 16 14 35 21 19 7 35 17 35 22 0
5 8 9 18 9 9 0 28 9 42 20 14 11 29 20 33 20 5 0 21 9 37 20 15 11 30 17 34
13 3 -3 6 -1 6 6 0 7 5 9 10 6 6 -3 10 -1 10 4 0 6 7 11 15 11 9 0 18 7 21 15
4 8 10 13 14 10 5 -3 11 -1 15 5 4 6 11 8 16 5 5 -4 9 -2 9 3 0 5 18 17 40 27
22 10 40 22 40 27 0 5 5 6 10 3 6 -3 10 -1 10 4 0 6 5 11 10 11 6 0 28 11 50
25 22 14 40 22 40 18 0 -4 6 1 13 12 8 10 19 15 25 11 7 -4 12 -2 12 4 0 5 20
20 45 32 25 12 45 26 45 31 0 4 4 6 9 3 5 -3 12 1 15 10 3 8 10 12 16 9 5 -3
10 -2 10 4 0 6 11 13 25 17 14 3 25 10 25 15 0 5 6 9 14 9 8 0 16 7 20 15 3 8
12 15 21 15 9 0 25 9 37 20 12 10 25 17 30 14 4 -3 8 0 8 6 0 6 5 8 10 5 6 -3
10 2 10 11 0 10 3 15 6 11 4 -3 21 5 39 18 17 14 37 25 43 25 7 0 12 5 12 10
0 6 7 10 15 10 8 0 15 5 15 10 0 6 7 10 15 10 8 0 15 5 15 10 0 6 7 10 15 10
9 0 18 7 21 15 4 8 12 15 19 15 7 0 18 7 25 15 7 9 15 14 17 11 2 -2 16 7 30
20 14 13 29 21 34 18 5 -3 9 -1 9 4 0 5 29 29 65 53 36 24 65 48 65 52 0 5 5
5 10 2 6 -3 10 -1 10 4 0 6 5 11 10 11 6 0 18 8 29 18 26 24 83 67 90 67 6 1
42 30 82 68 10 9 19 14 19 10 0 -4 7 3 16 15 8 12 19 22 25 22 5 0 17 8 27 18
29 26 104 87 114 91 5 2 30 22 56 46 26 24 88 78 137 121 113 99 204 184 364
345 107 107 167 170 306 323 11 13 54 60 97 107 114 126 158 182 158 201 0 24
-35 41 -59 29 -14 -8 -189 -145 -266 -209 -15 -13 -217 -170 -245 -191 -14
-11 -50 -37 -80 -60 -30 -22 -59 -44 -65 -48 -5 -5 -39 -29 -75 -53 -36 -25
-69 -48 -75 -53 -69 -52 -105 -77 -114 -77 -5 0 -11 -4 -13 -8 -3 -8 -145
-103 -273 -183 -38 -24 -71 -47 -73 -51 -2 -4 -12 -8 -22 -8 -10 0 -20 -3 -22
-7 -3 -8 -91 -68 -95 -65 -1 1 -33 -19 -70 -43 -37 -25 -74 -45 -80 -45 -7 0
-13 -3 -13 -8 0 -4 -17 -16 -37 -27 -38 -20 -67 -38 -123 -75 -17 -12 -35 -18
-40 -15 -6 3 -10 1 -10 -5 0 -6 -8 -14 -17 -17 -10 -4 -29 -15 -42 -25 -13
-10 -27 -15 -32 -12 -5 3 -9 0 -9 -5 0 -6 -15 -17 -32 -25 -42 -19 -134 -72
-170 -98 -16 -11 -28 -16 -28 -13 0 4 -7 -1 -16 -9 -8 -9 -20 -14 -25 -11 -5
4 -9 2 -9 -3 0 -5 -18 -17 -40 -28 -22 -10 -40 -23 -40 -27 0 -5 -4 -5 -10 -2
-5 3 -10 3 -10 -2 0 -7 -58 -38 -70 -36 -3 0 -11 -8 -18 -19 -7 -10 -17 -16
-22 -13 -5 3 -14 0 -22 -7 -7 -7 -36 -24 -63 -38 -27 -14 -54 -28 -60 -33 -18
-13 -119 -67 -147 -78 -16 -6 -28 -15 -28 -21 0 -5 -4 -7 -9 -4 -4 3 -19 -3
-31 -14 -12 -11 -27 -17 -31 -14 -5 3 -9 0 -9 -6 0 -6 -4 -8 -10 -5 -5 3 -10
2 -10 -3 0 -9 -20 -18 -44 -20 -5 0 -12 -5 -15 -10 -3 -6 -32 -22 -63 -36 -31
-14 -60 -31 -63 -36 -4 -6 -11 -8 -16 -5 -5 4 -9 1 -9 -4 0 -6 -3 -10 -7 -9
-5 1 -20 -6 -35 -16 -15 -10 -33 -14 -39 -10 -7 4 -9 3 -5 -4 5 -9 -32 -29
-43 -23 -2 2 -7 -1 -10 -6 -12 -16 -71 -44 -81 -38 -6 3 -10 -1 -10 -9 0 -14
-18 -21 -42 -17 -5 0 -8 -4 -8 -10 0 -6 -7 -8 -16 -5 -8 3 -12 2 -9 -4 3 -6
-1 -10 -9 -10 -8 0 -21 -7 -30 -15 -8 -9 -18 -15 -21 -14 -12 2 -65 -24 -65
-32 0 -5 -5 -9 -11 -9 -5 0 -7 6 -3 13 4 6 -4 2 -18 -11 -13 -12 -28 -19 -31
-15 -4 3 -7 1 -7 -5 0 -7 -3 -11 -7 -11 -13 3 -73 -25 -73 -33 0 -4 -7 -8 -15
-8 -19 0 -105 -42 -105 -52 0 -4 -7 -5 -15 -2 -8 4 -15 1 -15 -5 0 -6 -3 -10
-7 -9 -5 1 -25 -6 -47 -15 -21 -9 -42 -17 -47 -17 -5 0 -9 -5 -9 -11 0 -6 -7
-9 -15 -5 -8 3 -15 1 -15 -4 0 -4 -22 -16 -50 -25 -27 -9 -50 -20 -50 -24 0
-4 -10 -8 -22 -8 -13 -1 -24 -7 -26 -13 -2 -5 -12 -10 -23 -10 -10 0 -19 -5
-19 -11 0 -5 -3 -8 -8 -6 -4 3 -25 -3 -46 -14 -21 -10 -42 -16 -46 -14 -4 3
-11 -2 -14 -11 -3 -8 -10 -12 -16 -9 -5 3 -10 2 -10 -3 0 -5 -6 -9 -12 -9 -23
-1 -42 -8 -56 -20 -7 -7 -25 -13 -38 -13 -14 0 -22 -4 -19 -10 3 -5 -3 -10
-14 -10 -12 0 -21 -4 -21 -9 0 -21 -42 4 -54 33 -8 17 -33 71 -56 120 -24 49
-43 95 -43 102 0 7 -4 11 -9 8 -4 -3 -8 -1 -8 5 0 9 -30 79 -75 176 -12 27
-26 62 -30 75 0 3 -9 19 -18 37 -9 18 -17 39 -17 48 0 8 -4 15 -10 15 -5 0
-10 9 -10 20 0 11 -4 20 -8 20 -5 0 -9 7 -10 15 -1 8 -3 22 -4 30 -1 8 -5 15
-10 15 -4 0 -8 9 -8 20 0 11 -5 20 -11 20 -5 0 -7 5 -4 10 3 6 2 10 -4 10 -5
0 -8 9 -6 20 2 11 -1 20 -6 20 -6 0 -7 5 -4 10 3 6 1 10 -5 10 -6 0 -8 5 -5
10 3 6 1 10 -6 10 -6 0 -9 8 -6 19 3 12 -1 22 -9 25 -8 3 -14 14 -14 24 0 10
-5 23 -12 30 -7 7 -9 12 -5 12 4 0 0 15 -10 33 -9 17 -16 36 -15 40 1 4 -3 18
-10 30 -7 12 -13 24 -13 27 -1 3 -7 18 -13 33 -7 16 -9 33 -6 39 4 7 2 8 -4 4
-8 -5 -12 0 -12 13 0 11 -5 23 -10 26 -6 4 -8 10 -5 15 3 5 0 12 -6 15 -5 4
-8 13 -5 20 3 8 0 15 -5 17 -5 2 -11 15 -13 30 -1 15 -7 33 -13 40 -6 7 -23
51 -39 98 -16 47 -33 88 -39 92 -5 4 -6 8 -2 8 4 0 3 9 -3 21 -12 22 -21 54
-23 81 -1 9 -5 14 -9 12 -4 -3 -8 4 -8 15 0 11 -4 23 -10 26 -5 3 -10 17 -10
30 0 13 -5 27 -10 30 -6 4 -8 10 -5 15 3 5 1 11 -5 15 -6 4 -8 11 -5 16 4 5 2
9 -3 9 -5 0 -9 7 -10 15 -1 8 -3 22 -4 30 -1 8 -5 15 -9 15 -4 0 -10 15 -13
34 -4 19 -12 37 -19 39 -8 4 -8 6 2 6 10 1 11 4 2 15 -7 8 -13 22 -16 32 -2
11 -10 35 -19 55 -8 20 -12 39 -9 43 4 3 1 6 -6 6 -7 0 -10 4 -6 9 3 5 0 13
-6 16 -5 4 -8 13 -5 21 3 8 1 14 -5 14 -6 0 -8 4 -5 8 3 5 -2 21 -10 36 -7 16
-14 36 -14 45 0 10 -3 21 -7 25 -7 6 -13 29 -15 54 -1 6 -5 12 -10 12 -4 0 -8
11 -8 25 0 14 -4 25 -8 25 -4 0 -9 12 -10 26 -1 15 -6 32 -10 38 -10 13 -37
108 -34 119 1 4 -3 7 -8 7 -6 0 -10 11 -10 25 0 14 -4 25 -10 25 -5 0 -10 11
-10 25 0 14 -8 38 -17 52 -11 17 -13 24 -5 19 14 -9 14 -9 -21 62 -11 21 -12
30 -4 26 9 -6 8 -3 -1 8 -7 9 -15 29 -18 44 -3 16 -10 34 -16 41 -6 7 -7 13
-3 13 4 0 1 8 -6 17 -12 15 -12 16 1 8 13 -8 13 -7 0 9 -8 10 -15 27 -17 39
-2 11 -9 27 -16 36 -10 12 -9 13 3 6 12 -7 11 -3 -2 18 -10 14 -18 37 -18 51
0 13 -4 26 -10 28 -5 2 -11 15 -12 31 -1 15 -7 27 -12 27 -5 0 -7 3 -3 6 3 3
-1 24 -9 46 -7 22 -11 45 -7 51 3 5 1 7 -4 4 -7 -4 -14 9 -19 31 -9 42 -10 50
-14 57 -1 3 -4 10 -5 15 -1 6 -4 12 -5 15 -1 3 -3 8 -4 13 -5 19 -29 99 -34
112 -3 8 -6 20 -7 25 -1 6 -3 12 -4 15 -2 3 -5 19 -7 35 -3 17 -7 37 -11 45
-3 8 -8 28 -10 45 -3 16 -8 32 -12 35 -4 3 -6 12 -6 20 1 8 -4 31 -12 50 -7
19 -14 46 -16 60 -2 14 -6 32 -10 40 -3 8 -8 24 -13 35 -4 11 -7 23 -6 27 1 3
-5 12 -13 18 -8 7 -15 17 -15 22 0 13 -67 78 -74 71 -3 -4 -6 0 -6 7 0 7 -3
11 -6 7 -3 -3 -22 3 -41 14 -19 11 -32 15 -29 10 7 -10 -33 -9 -51 2 -5 3 -13
3 -17 -1z m544 -2597 c0 -7 20 -66 45 -131 24 -65 43 -120 40 -122 -2 -2 3
-11 11 -19 8 -9 13 -22 10 -29 -3 -8 0 -14 6 -14 6 0 8 -3 5 -7 -4 -3 0 -17 8
-30 9 -13 13 -23 9 -23 -4 0 -1 -7 6 -15 7 -8 9 -15 5 -15 -4 0 -2 -7 5 -15 6
-8 9 -19 5 -25 -3 -5 -2 -10 4 -10 8 0 14 -12 27 -50 0 -3 5 -20 9 -37 4 -18
11 -33 16 -33 5 0 9 -10 9 -23 0 -13 4 -27 8 -33 10 -10 42 -90 47 -116 2 -9
11 -28 20 -42 9 -14 17 -29 17 -33 1 -4 4 -17 6 -28 3 -11 4 -22 3 -24 -2 -2
2 -7 9 -11 6 -4 12 -16 13 -28 0 -12 7 -24 15 -27 7 -3 11 -9 7 -15 -3 -5 1
-20 9 -32 8 -13 16 -27 16 -33 1 -5 10 -29 21 -52 10 -23 19 -47 19 -52 0 -6
4 -11 10 -11 5 0 7 -7 4 -15 -4 -8 -1 -15 5 -15 6 0 10 -3 9 -7 -1 -5 3 -18
10 -30 7 -13 10 -23 6 -23 -3 0 1 -11 10 -25 9 -13 16 -31 16 -40 0 -9 5 -13
10 -10 6 3 10 -1 10 -10 0 -10 11 -39 24 -65 13 -27 22 -51 19 -54 -4 -3 -1
-6 6 -6 7 0 9 -5 6 -10 -3 -6 1 -13 9 -16 9 -3 13 -10 10 -15 -3 -6 0 -16 6
-24 6 -8 8 -20 4 -27 -4 -7 -4 -10 1 -6 9 8 55 -79 55 -105 0 -10 4 -15 10
-12 6 3 10 -3 10 -13 0 -11 7 -25 15 -32 14 -11 13 -14 -2 -25 -19 -13 -73
-29 -85 -27 -5 1 -8 -3 -8 -9 0 -6 -7 -9 -15 -5 -8 3 -15 2 -15 -3 0 -7 -84
-36 -100 -35 -3 1 -10 -6 -17 -15 -11 -14 -12 -14 -13 -1 0 12 -2 13 -9 1 -5
-7 -14 -10 -20 -7 -6 4 -11 3 -11 -2 0 -6 -12 -13 -27 -18 -36 -10 -33 -9 -66
-22 -16 -7 -33 -10 -38 -6 -5 3 -9 0 -9 -6 0 -7 -7 -10 -15 -6 -8 3 -15 1 -15
-5 0 -6 -4 -8 -9 -5 -5 3 -14 -1 -21 -10 -11 -12 -15 -12 -21 -2 -7 11 -9 11
-9 0 0 -7 -4 -10 -10 -7 -5 3 -10 2 -10 -4 0 -6 -6 -8 -14 -5 -8 3 -17 0 -21
-5 -3 -6 -11 -9 -16 -6 -5 4 -9 1 -9 -4 0 -6 -3 -10 -7 -9 -10 2 -62 -11 -88
-22 -46 -19 -126 -40 -135 -35 -4 3 -10 1 -12 -3 -1 -5 -14 -12 -28 -15 -22
-5 -25 -3 -25 18 0 14 3 25 7 25 4 0 5 9 3 20 -2 11 -1 20 3 20 4 0 8 12 8 28
1 24 6 57 19 127 8 47 16 102 18 125 1 14 6 28 12 32 6 5 6 8 -2 8 -14 0 -6
31 11 42 7 5 7 8 -2 8 -8 0 -10 5 -6 12 4 6 9 32 11 57 2 25 6 53 9 61 4 8 8
35 9 60 3 49 12 129 21 200 4 24 7 55 9 68 1 12 5 25 9 29 3 3 1 12 -5 19 -6
7 -7 19 -3 26 5 7 9 31 11 53 1 22 4 72 8 110 4 39 7 103 8 142 1 40 5 73 8
73 3 0 4 14 3 30 -1 17 2 33 7 36 6 4 6 10 0 17 -12 15 -12 27 1 51 7 13 7 16
-1 12 -8 -5 -8 0 -2 17 6 16 6 28 -2 36 -7 7 -7 11 -1 11 6 0 10 17 9 38 -1
20 3 43 9 51 7 9 7 13 1 9 -7 -4 -11 14 -10 53 0 32 2 59 5 59 3 0 5 58 4 129
0 72 3 128 8 125 4 -3 8 -11 8 -19z"/>
</g>
</svg>
